<svg width="18" height="18" viewBox="0 0 18 18" fill="none" xmlns="http://www.w3.org/2000/svg">
<path fill-rule="evenodd" clip-rule="evenodd" d="M13.3225 12.0776C15.5855 9.70174 15.5589 5.92009 13.2426 3.57731C10.8995 1.2073 7.1005 1.2073 4.75736 3.57731C2.41421 5.94733 2.41421 9.78988 4.75736 12.1599L8.57574 16.0221C8.81005 16.2591 9.18995 16.2591 9.42426 16.0221L13.2426 12.1599L13.3225 12.0776ZM9 9.99981C10.1046 9.99981 11 9.10437 11 7.9998C11 6.89524 10.1046 5.9998 9 5.9998C7.89543 5.9998 7 6.89524 7 7.9998C7 9.10437 7.89543 9.99981 9 9.99981Z" fill="#B8BECC"/>
</svg>
