<?xml version="1.0" encoding="UTF-8"?>
<svg width="76px" height="76px" viewBox="0 0 76 76" version="1.1" xmlns="http://www.w3.org/2000/svg" xmlns:xlink="http://www.w3.org/1999/xlink">
    <title>ic地图wap</title>
    <g id="ic地图wap" stroke="none" stroke-width="1" fill="none" fill-rule="evenodd">
        <path d="M61.6550342,39.9087316 C65.6678787,39.9087316 69.2474935,42.4313548 70.5971591,46.2104187 L70.5971591,46.2104187 L74.6125001,57.4533733 C76.3762855,62.3919726 73.8025904,67.8253288 68.8639912,69.5891143 C67.8390231,69.9551743 66.7587499,70.1422925 65.6703752,70.1422925 L65.6703752,70.1422925 L10.1152621,70.1422925 C4.871151,70.1422925 0.619958986,65.8911005 0.619958986,60.6469894 C0.619958986,59.5586146 0.807077156,58.4783414 1.17313719,57.4533733 L1.17313719,57.4533733 L5.18847815,46.2104187 C6.53814381,42.4313548 10.1177586,39.9087316 14.1306031,39.9087316 L14.1306031,39.9087316 L15.8158867,39.9086597 C16.4084029,40.6909666 17.0614144,41.4420602 17.7749211,42.1555669 L17.7749211,42.1555669 L19.527959,43.9086597 L14.1306031,43.9087316 C11.8882955,43.9087316 9.87972152,45.2697227 9.04081071,47.3321373 L8.9554458,47.5557643 L4.94010484,58.7987189 C4.72825159,59.391908 4.61995899,60.0171044 4.61995899,60.6469894 C4.61995899,63.6819615 7.08029,66.1422925 10.1152621,66.1422925 L10.1152621,66.1422925 L65.6703752,66.1422925 C66.3002602,66.1422925 66.9254565,66.0339999 67.5186456,65.8221466 C70.3768061,64.8013751 71.866304,61.6568794 70.8455324,58.7987189 L70.8455324,58.7987189 L66.8301915,47.5557643 C66.0490872,45.3686723 63.9774242,43.9087316 61.6550342,43.9087316 L61.6550342,43.9087316 L56.255959,43.9086597 L58.0107162,42.1555669 C58.7242229,41.4420602 59.3772344,40.6909666 59.9697506,39.9086597 Z" id="形状结合" fill="#C2C5CC" fill-rule="nonzero"></path>
        <path d="M37.8928186,6.36912889 C43.291125,6.36912889 48.1783741,8.55722485 51.7160466,12.0948974 C55.2537191,15.6325699 57.4418151,20.519819 57.4418151,25.9181254 L57.4418151,25.9181254 L57.4418151,43.7194703 C57.4418151,44.2020709 57.2462025,44.6389838 56.9299398,44.9552465 C56.6136771,45.2715092 56.1767642,45.4671218 55.6941635,45.4671218 L55.6941635,45.4671218 L37.8928186,45.4671218 C32.4945123,45.4671218 27.6072632,43.2790259 24.0695907,39.7413533 C20.5319181,36.2036808 18.3438222,31.3164317 18.3438222,25.9181254 C18.3438222,20.519819 20.5319181,15.6325699 24.0695907,12.0948974 C27.6072632,8.55722485 32.4945123,6.36912889 37.8928186,6.36912889 Z" id="矩形" stroke="#C2C5CC" stroke-width="4" transform="translate(37.892819, 25.918125) rotate(45.000000) translate(-37.892819, -25.918125) "></path>
        <circle id="椭圆形" fill="#C2C5CC" cx="38" cy="25" r="4"></circle>
    </g>
</svg>