<svg width="22" height="22" viewBox="0 0 22 22" fill="none" xmlns="http://www.w3.org/2000/svg">
<path d="M2.65812 13.5204C4.87218 18.614 9.53312 20.4398 10.8592 20.76C10.9425 20.7805 11.0294 20.7809 11.1128 20.7612C12.2703 20.4942 16.9887 18.9471 19.3415 13.5186C20.4268 11.0136 20.1133 7.21106 20.1542 5.30072C20.1665 4.77395 19.8255 4.27222 19.3066 4.05222C19.0683 3.95139 12.651 1.22828 10.9808 1.22217C9.65901 1.22645 5.14351 2.99745 2.68379 4.04306C2.22485 4.238 1.83068 4.81856 1.84046 5.28484C1.88324 7.20861 1.57279 11.0246 2.65812 13.5204Z" fill="#f0b419"/>
<path d="M10.826 14.168C10.3407 14.168 9.96267 14.0653 9.692 13.86C9.44933 13.6733 9.23933 13.37 9.062 12.95L6.80044 7.69774C6.65833 7.36771 6.90035 7 7.25968 7H8.07732C8.28285 7 8.46745 7.12578 8.54265 7.31706L10.504 12.306C10.5787 12.474 10.6907 12.558 10.84 12.558C10.9893 12.558 11.0967 12.474 11.162 12.306L13.1369 7.316C13.2124 7.12528 13.3967 7 13.6018 7H14.38C14.7389 7 14.9809 7.36691 14.8396 7.69683L12.59 12.95C12.4127 13.37 12.2027 13.6733 11.96 13.86C11.6893 14.0653 11.3113 14.168 10.826 14.168Z" fill="white"/>
</svg>
